REM DIRINDEX 1\2,1\3,1\4,1\5
REM DIRNAME folder01,folder02,folder03,folder04,folder05
TITLE ""
FILE "1Q_t_0760-0769.mp3" MP3
  TRACK 01 AUDIO
    TITLE "3:cjc004_3183"
    INDEX 01 00:00:00
  TRACK 02 AUDIO
    TITLE "0:"
    INDEX 01 00:01:17
  TRACK 03 AUDIO
    TITLE "4:cjc004_3184"
    INDEX 01 00:01:46
  TRACK 04 AUDIO
    TITLE "0:"
    INDEX 01 00:03:04
  TRACK 05 AUDIO
    TITLE "5:cjc004_3185"
    INDEX 01 00:03:27
  TRACK 06 AUDIO
    TITLE "0:"
    INDEX 01 00:08:11
  TRACK 07 AUDIO
    TITLE "3:cjc004_3186"
    INDEX 01 00:08:66
  TRACK 08 AUDIO
    TITLE "0:"
    INDEX 01 00:10:06
  TRACK 09 AUDIO
    TITLE "4:cjc004_3187"
    INDEX 01 00:10:16
  TRACK 10 AUDIO
    TITLE "0:"
    INDEX 01 00:11:39
  TRACK 11 AUDIO
    TITLE "5:cjc004_3188"
    INDEX 01 00:11:60
  TRACK 12 AUDIO
    TITLE "0:"
    INDEX 01 00:15:38
  TRACK 13 AUDIO
    TITLE "3:cjc004_3189"
    INDEX 01 00:16:14
  TRACK 14 AUDIO
    TITLE "0:"
    INDEX 01 00:17:41
  TRACK 15 AUDIO
    TITLE "4:cjc004_3190"
    INDEX 01 00:17:65
  TRACK 16 AUDIO
    TITLE "0:"
    INDEX 01 00:19:52
  TRACK 17 AUDIO
    TITLE "5:cjc004_3191"
    INDEX 01 00:20:02
  TRACK 18 AUDIO
    TITLE "0:"
    INDEX 01 00:24:12
  TRACK 19 AUDIO
    TITLE "3:cjc004_3192"
    INDEX 01 00:24:65
  TRACK 20 AUDIO
    TITLE "0:"
    INDEX 01 00:26:07
  TRACK 21 AUDIO
    TITLE "4:cjc004_3193"
    INDEX 01 00:26:26
  TRACK 22 AUDIO
    TITLE "0:"
    INDEX 01 00:27:34
  TRACK 23 AUDIO
    TITLE "5:cjc004_3194"
    INDEX 01 00:27:61
  TRACK 24 AUDIO
    TITLE "0:"
    INDEX 01 00:34:32
  TRACK 25 AUDIO
    TITLE "3:cjc004_3195"
    INDEX 01 00:35:08
  TRACK 26 AUDIO
    TITLE "0:"
    INDEX 01 00:36:11
  TRACK 27 AUDIO
    TITLE "4:cjc004_3196"
    INDEX 01 00:36:23
  TRACK 28 AUDIO
    TITLE "0:"
    INDEX 01 00:37:32
  TRACK 29 AUDIO
    TITLE "5:cjc004_3197"
    INDEX 01 00:37:56
  TRACK 30 AUDIO
    TITLE "0:"
    INDEX 01 00:42:23
  TRACK 31 AUDIO
    TITLE "3:cjc004_3198"
    INDEX 01 00:43:01
  TRACK 32 AUDIO
    TITLE "0:"
    INDEX 01 00:44:05
  TRACK 33 AUDIO
    TITLE "4:cjc004_3199"
    INDEX 01 00:44:32
  TRACK 34 AUDIO
    TITLE "0:"
    INDEX 01 00:45:63
  TRACK 35 AUDIO
    TITLE "5:cjc004_3200"
    INDEX 01 00:46:09
  TRACK 36 AUDIO
    TITLE "0:"
    INDEX 01 00:50:15
  TRACK 37 AUDIO
    TITLE "3:cjc004_3201"
    INDEX 01 00:50:70
  TRACK 38 AUDIO
    TITLE "0:"
    INDEX 01 00:52:12
  TRACK 39 AUDIO
    TITLE "4:cjc004_3202"
    INDEX 01 00:52:34
  TRACK 40 AUDIO
    TITLE "0:"
    INDEX 01 00:53:62
  TRACK 41 AUDIO
    TITLE "5:cjc004_3203"
    INDEX 01 00:54:11
  TRACK 42 AUDIO
    TITLE "0:"
    INDEX 01 00:58:40
  TRACK 43 AUDIO
    TITLE "3:cjc004_3204"
    INDEX 01 00:59:18
  TRACK 44 AUDIO
    TITLE "0:"
    INDEX 01 01:00:41
  TRACK 45 AUDIO
    TITLE "4:cjc004_3205"
    INDEX 01 01:00:70
  TRACK 46 AUDIO
    TITLE "0:"
    INDEX 01 01:02:24
  TRACK 47 AUDIO
    TITLE "5:cjc004_3206"
    INDEX 01 01:02:42
  TRACK 48 AUDIO
    TITLE "0:"
    INDEX 01 01:07:33
  TRACK 49 AUDIO
    TITLE "3:cjc004_3207"
    INDEX 01 01:08:07
  TRACK 50 AUDIO
    TITLE "0:"
    INDEX 01 01:09:18
  TRACK 51 AUDIO
    TITLE "4:cjc004_3208"
    INDEX 01 01:09:46
  TRACK 52 AUDIO
    TITLE "0:"
    INDEX 01 01:10:49
  TRACK 53 AUDIO
    TITLE "5:cjc004_3209"
    INDEX 01 01:10:71
  TRACK 54 AUDIO
    TITLE "0:"
    INDEX 01 01:16:71
  TRACK 55 AUDIO
    TITLE "3:cjc004_3210"
    INDEX 01 01:17:47
  TRACK 56 AUDIO
    TITLE "0:"
    INDEX 01 01:18:62
  TRACK 57 AUDIO
    TITLE "4:cjc004_3211"
    INDEX 01 01:19:11
  TRACK 58 AUDIO
    TITLE "0:"
    INDEX 01 01:20:38
  TRACK 59 AUDIO
    TITLE "5:cjc004_3212"
    INDEX 01 01:20:65
  TRACK 60 AUDIO
    TITLE "0:"
    INDEX 01 01:25:19
